<svg width="16" height="16" viewBox="0 0 16 16" fill="none" xmlns="http://www.w3.org/2000/svg">
<path d="M5.25877 13.0996H4.90514C2.0761 13.0996 0.661576 12.368 0.661576 8.70971V5.05147C0.661576 2.12487 2.0761 0.661576 4.90514 0.661576H10.5632C13.3923 0.661576 14.8068 2.12487 14.8068 5.05147V8.70971C14.8068 11.6363 13.3923 13.0996 10.5632 13.0996H10.2096C9.99034 13.0996 9.77816 13.2094 9.64378 13.3923L8.58289 14.8556C8.1161 15.4994 7.35226 15.4994 6.88547 14.8556L5.82458 13.3923C5.71141 13.2313 5.44973 13.0996 5.25877 13.0996Z" stroke="#0001CB" stroke-width="1.30952" stroke-miterlimit="10" stroke-linecap="round" stroke-linejoin="round"/>
<path d="M10.5607 7.24663H10.5673" stroke="#0001CB" stroke-width="1.74603" stroke-linecap="round" stroke-linejoin="round"/>
<path d="M7.7311 7.24663H7.73815" stroke="#0001CB" stroke-width="1.74603" stroke-linecap="round" stroke-linejoin="round"/>
<path d="M4.90133 7.24651H4.90837" stroke="#0001CB" stroke-width="1.74603" stroke-linecap="round" stroke-linejoin="round"/>
</svg>
