<svg width="24" height="24" viewBox="0 0 24 24" fill="none" xmlns="http://www.w3.org/2000/svg">
<path d="M17.2611 0.503971L5.78548 4.31648C-1.92849 6.89628 -1.92849 11.1028 5.78548 13.6699L9.19133 14.8009L10.3223 18.2068C12.8894 25.9207 17.1086 25.9207 19.6757 18.2068L23.5009 6.74378C25.2038 1.59689 22.408 -1.21166 17.2611 0.503971ZM17.6678 7.34107L12.8386 12.1957C12.648 12.3863 12.4065 12.4753 12.165 12.4753C11.9236 12.4753 11.6821 12.3863 11.4915 12.1957C11.1229 11.8272 11.1229 11.2172 11.4915 10.8486L16.3207 5.99399C16.6892 5.62544 17.2992 5.62544 17.6678 5.99399C18.0363 6.36253 18.0363 6.97253 17.6678 7.34107Z" fill="#0001CB"/>
</svg>
